<svg xmlns="http://www.w3.org/2000/svg" xmlns:xlink="http://www.w3.org/1999/xlink" viewBox="0 0 450 450">
  <defs>
    <style>
      .a {
        isolation: isolate;
      }

      .b {
        fill: #b12525;
      }

      .c {
        fill: #d22e2e;
      }

      .d {
        fill: #932524;
      }

      .e, .f, .i, .k, .l, .m {
        mix-blend-mode: darken;
      }

      .e {
        fill: url(#a);
      }

      .f {
        fill: url(#b);
      }

      .g {
        fill: #7a2020;
      }

      .h {
        fill: #b72e2e;
      }

      .i {
        fill: url(#c);
      }

      .j {
        fill: #ba3a3a;
      }

      .k {
        fill: url(#d);
      }

      .l {
        fill: url(#e);
      }

      .m {
        fill: url(#f);
      }
    </style>
    <linearGradient id="a" x1="432.69" y1="98" x2="365.51" y2="98" gradientUnits="userSpaceOnUse">
      <stop offset="0" stop-color="#231f20" stop-opacity="0.5"/>
      <stop offset="1" stop-opacity="0"/>
    </linearGradient>
    <linearGradient id="b" x1="224.83" y1="98" x2="292.01" y2="98" xlink:href="#a"/>
    <linearGradient id="c" x1="224.83" y1="229.48" x2="24.58" y2="229.48" gradientUnits="userSpaceOnUse">
      <stop offset="0" stop-color="#231f20" stop-opacity="0.5"/>
      <stop offset="0.02" stop-color="#221e1f" stop-opacity="0.48"/>
      <stop offset="0.52" stop-color="#080808" stop-opacity="0.12"/>
      <stop offset="1" stop-opacity="0"/>
    </linearGradient>
    <linearGradient id="d" x1="326.01" y1="263.65" x2="288.19" y2="241.81" xlink:href="#c"/>
    <linearGradient id="e" x1="328.76" y1="30.85" x2="328.76" y2="117.42" xlink:href="#a"/>
    <linearGradient id="f" x1="126.25" y1="38.43" x2="126.25" y2="120.96" xlink:href="#a"/>
  </defs>
  <title>sinterice-dobra-srca-sa-fontom</title>
  <g class="a">
    <g>
      <g>
        <polygon class="b" points="224.83 374.02 406.69 91.45 224.83 84.94 224.83 374.02"/>
        <polygon class="c" points="224.83 374.02 24.58 85.54 224.83 84.94 224.83 374.02"/>
        <polygon class="d" points="224.83 374.02 24.58 85.54 98.61 149.91 113.34 150.27 224.83 374.02"/>
        <g>
          <polygon class="c" points="292.01 165.14 365.51 165.14 399.1 137.06 365.51 30.85 291.44 30.85 259.39 133.47 292.01 165.14"/>
          <polygon class="d" points="407.98 165.14 365.51 30.85 432.69 85.64 407.98 165.14"/>
          <polygon class="d" points="249.5 165.14 292.01 30.85 224.83 84.94 249.5 165.14"/>
          <polygon class="d" points="292.01 165.14 365.51 165.14 328.76 117.42 292.01 165.14"/>
          <ellipse cx="294.76" cy="98" rx="6.63" ry="7.29"/>
          <ellipse cx="360.62" cy="98" rx="6.63" ry="7.29"/>
          <polygon class="e" points="407.98 165.14 365.51 30.85 432.69 85.64 407.98 165.14"/>
          <ellipse cx="328.76" cy="117.42" rx="6.63" ry="7.29"/>
          <ellipse cx="328.76" cy="117.42" rx="6.63" ry="7.29"/>
          <polygon class="f" points="249.5 165.14 292.01 30.85 224.83 84.94 249.5 165.14"/>
        </g>
        <polygon class="g" points="224.83 374.02 399.1 137.06 365.51 165.14 332.39 165.25 224.83 374.02"/>
        <polygon class="h" points="224.83 374.02 399.1 137.06 365.51 165.14 332.39 165.25 224.83 374.02"/>
        <polygon class="i" points="224.83 374.02 24.58 85.54 224.83 84.94 224.83 374.02"/>
        <g>
          <polygon class="d" points="87.17 0 24.58 85.64 111.63 38.43 87.17 0"/>
          <polygon class="d" points="160.31 0 222.9 85.64 135.85 38.43 160.31 0"/>
          <polygon class="c" points="149.59 159.5 224.83 85.66 180.97 38.43 71.16 38.43 24.58 85.64 98.56 159.67 149.59 159.5"/>
          <polygon class="h" points="98.2 160.04 149.51 159.42 124.7 120.96 98.2 160.04"/>
          <ellipse cx="86.54" cy="85.64" rx="7.68" ry="8.32"/>
          <ellipse cx="162.87" cy="85.64" rx="7.68" ry="8.32"/>
          <rect class="g" x="24.58" y="119.96" width="200.26" height="4.34"/>
          <polygon class="g" points="26.09 103.78 222.52 144.75 223.32 140.49 26.89 99.52 26.09 103.78"/>
          <polygon class="g" points="27.75 148.53 222.61 99.96 221.66 95.74 26.8 144.31 27.75 148.53"/>
          <ellipse cx="124.71" cy="122.13" rx="7.68" ry="8.32"/>
        </g>
        <polygon class="j" points="323.97 182.62 365.51 165.14 292.01 165.14 323.97 182.62"/>
        <polygon class="d" points="129.27 183.43 98.61 159.63 149.51 159.63 129.27 183.43"/>
        <polygon class="h" points="328.76 117.42 365.51 30.85 292.01 30.85 328.76 117.42"/>
        <polygon class="h" points="124.7 120.96 180.97 38.43 71.53 38.43 124.7 120.96"/>
        <ellipse cx="124.71" cy="122.3" rx="8.72" ry="8.83"/>
        <polygon class="k" points="224.83 374.02 399.1 137.06 365.51 165.14 332.39 165.25 224.83 374.02"/>
        <polygon class="l" points="328.76 117.42 365.51 30.85 292.01 30.85 328.76 117.42"/>
        <polygon class="m" points="124.7 120.96 180.97 38.43 71.53 38.43 124.7 120.96"/>
        <ellipse cx="328.76" cy="117.42" rx="8.72" ry="8.83"/>
      </g>
      <g>
        <path class="c" d="M42.8,397a15.62,15.62,0,0,1,4.35,2.81,15.13,15.13,0,0,1,3.23,4.07,11.89,11.89,0,0,1,1.42,4.72,8.14,8.14,0,0,1-1,4.69,2,2,0,0,1-1.42.89,5.26,5.26,0,0,1-2,0,3.9,3.9,0,0,1-1.64-.67.76.76,0,0,1-.22-1.12A9.29,9.29,0,0,0,47,407.59a9.57,9.57,0,0,0-.79-4.2,7.84,7.84,0,0,0-2.31-3,4.85,4.85,0,0,0-3-1.14,1.45,1.45,0,0,0-1.44,1.09,7.49,7.49,0,0,0-.35,2.76,27.35,27.35,0,0,0,.4,3.72q.35,2.06.82,4t.94,3.55q.47,1.61.72,2.36.84,2.53,1.66,5.14a38.94,38.94,0,0,1,1.27,5.29,20.78,20.78,0,0,1-.65,10.73,11.36,11.36,0,0,1-2.73,4.27,14.71,14.71,0,0,1-4.67,3.08,19.5,19.5,0,0,1-7.7,1.54q-2,0-4.32-.17a20.71,20.71,0,0,1-4.17-.72,12.24,12.24,0,0,1-6.11-3.53A10.22,10.22,0,0,1,12,436.64a12.92,12.92,0,0,1,.74-6.21,13.4,13.4,0,0,1,3.33-5.26,9.45,9.45,0,0,1,5.36-2.68,8.63,8.63,0,0,1,3.58.3,10.4,10.4,0,0,1,3.72,1.86,8.18,8.18,0,0,1,2.53,3.3,6.35,6.35,0,0,1,0,4.62,1.74,1.74,0,0,1-1.39,1.14,5.85,5.85,0,0,1-2.21.07,4.38,4.38,0,0,1-1.89-.72.91.91,0,0,1-.37-1.29,6.5,6.5,0,0,0,.79-3.1,4.78,4.78,0,0,0-.7-2.43,3.89,3.89,0,0,0-1.66-1.49,3.6,3.6,0,0,0-2.06-.32,7.78,7.78,0,0,0-4.22,2.11,11.28,11.28,0,0,0-2.88,4.54,11.47,11.47,0,0,0-.62,5.46A7.86,7.86,0,0,0,16.09,441a10.25,10.25,0,0,0,4.94,3,13,13,0,0,0,6.28.15,13.37,13.37,0,0,0,5.46-2.48A9.72,9.72,0,0,0,36,437.24a15.36,15.36,0,0,0,.89-4.84,25.35,25.35,0,0,0-.4-5,43.77,43.77,0,0,0-1.22-5q-.77-2.53-1.61-5.07-1.09-3.28-2-6.31a24.56,24.56,0,0,1-1-6,10.08,10.08,0,0,1,.84-4.87,6.49,6.49,0,0,1,1.07-1.79,6.85,6.85,0,0,1,1.51-1.34,5.5,5.5,0,0,1,1.86-.74,9.71,9.71,0,0,1,2.31-.22,14.16,14.16,0,0,1,2.36.25A10.54,10.54,0,0,1,42.8,397Zm.79-4.67q-.25,0-1-.89t-1.71-2.14q-.92-1.19-1.79-2.21T37.84,386q-.6,0-.45-.32a1.47,1.47,0,0,1,.72-.52,4.46,4.46,0,0,1,1.37-.32A3.27,3.27,0,0,1,41,385a9.35,9.35,0,0,1,1.84,1.09,11.69,11.69,0,0,1,1.74,1.69A12,12,0,0,1,47,386l2-1a2.14,2.14,0,0,1,1.59-.07,3.07,3.07,0,0,1,1.19.75,2,2,0,0,1,.55.89q.1.42-.35.32a1.7,1.7,0,0,0-.87.32q-.67.37-1.54.94l-1.89,1.27-1.89,1.32-1.49,1A5,5,0,0,1,43.6,392.3Z"/>
        <path class="c" d="M65.8,420.43q-.74,1.47-1.76,3.13t-2.21,3.35A31.69,31.69,0,0,1,59.36,430a15.21,15.21,0,0,1-2.56,2.28,4.39,4.39,0,0,1-2.48.89,2.9,2.9,0,0,1-1.71-.4,3.34,3.34,0,0,1-1.17-1.27,5.6,5.6,0,0,1-.6-2,10.57,10.57,0,0,1,0-2.51,19.83,19.83,0,0,1,.77-3.48q.57-1.84,1.32-3.68t1.51-3.55q.77-1.71,1.34-3.1a16.32,16.32,0,0,0,.8-2.33q.22-.94-.12-1.29t.32-.7a3.58,3.58,0,0,1,1.66-.45,4.37,4.37,0,0,1,2.06.45,3,3,0,0,1,1.51,2,6.12,6.12,0,0,1-.15,3.5,28.15,28.15,0,0,1-1.66,4.3q-1.07,2.23-2.28,4.42t-2,3.9a9.53,9.53,0,0,0-.94,2.73q-.12,1,1,.92a2.48,2.48,0,0,0,1.27-.79,21.6,21.6,0,0,0,1.71-1.91q.94-1.17,1.94-2.61t1.89-2.88q.89-1.44,1.59-2.73a15.89,15.89,0,0,0,1-2.14.75.75,0,0,1,.5-.5,1.07,1.07,0,0,1,.65,0,.85.85,0,0,1,.47.4.61.61,0,0,1,0,.65Q66.54,419,65.8,420.43ZM63.64,405q.27-.6.6-1.19t.6-1.14a2.12,2.12,0,0,0,.27-.84,2.86,2.86,0,0,0-.75-2,5,5,0,0,0-1.66-1.19,4.25,4.25,0,0,0-1.66-.4c-.5,0-.75.12-.75.35a2,2,0,0,1-.3.84q-.3.55-.67,1.19t-.67,1.22a2.15,2.15,0,0,0-.3.92,2.84,2.84,0,0,0,.79,2.06,5,5,0,0,0,1.71,1.19,4.58,4.58,0,0,0,1.71.37c.53,0,.79-.13.79-.4A2.46,2.46,0,0,1,63.64,405Z"/>
        <path class="c" d="M84.47,414.59a13.27,13.27,0,0,1-.74,3.55q-.65,1.86-1.46,3.65t-1.64,3.4A28.4,28.4,0,0,0,79.35,428a4.46,4.46,0,0,0-.37,1.91q.07.72,1.07.72a2.24,2.24,0,0,0,1.24-.72A17,17,0,0,0,83,428q.94-1.17,2-2.63t1.91-2.9q.89-1.44,1.59-2.76a17,17,0,0,0,1-2.16.75.75,0,0,1,.5-.5,1.07,1.07,0,0,1,.65,0,.85.85,0,0,1,.47.4.61.61,0,0,1,0,.65q-.4.85-1.14,2.31t-1.76,3.13q-1,1.66-2.21,3.35A31.84,31.84,0,0,1,83.5,430a15.21,15.21,0,0,1-2.56,2.28,4.39,4.39,0,0,1-2.48.89,2.51,2.51,0,0,1-1.69-.47,3.91,3.91,0,0,1-1.14-1.42,6.79,6.79,0,0,1-.62-2A7.92,7.92,0,0,1,75,427a19.14,19.14,0,0,1,.94-4q.69-2,1.51-3.8t1.61-3.33a21.08,21.08,0,0,0,1.19-2.63,3.44,3.44,0,0,0,.27-1.71q-.12-.6-1.17-.55a3.36,3.36,0,0,0-1.54.87,22.25,22.25,0,0,0-2.16,2.09q-1.17,1.27-2.36,2.78t-2.14,2.91q-.94,1.94-2,3.85t-1.81,3.6a20.5,20.5,0,0,0-1.17,3,2.8,2.8,0,0,0,0,2q.2.4-.32.82a2.17,2.17,0,0,1-1.34.45,3,3,0,0,1-1.69-.52,3.46,3.46,0,0,1-1.32-2,5.91,5.91,0,0,1,0-3.13,31.61,31.61,0,0,1,1.29-4.15q.85-2.21,1.89-4.52t1.89-4.25a27.53,27.53,0,0,0,1.24-3.33q.4-1.39,0-1.79t.32-.7a3.63,3.63,0,0,1,1.69-.45,4.28,4.28,0,0,1,2.06.45,3,3,0,0,1,1.49,2,4,4,0,0,1,.15,1.42,9.91,9.91,0,0,1-.25,1.61q.94-1.09,1.91-2.09a16.94,16.94,0,0,1,2-1.74,11.34,11.34,0,0,1,1.94-1.19,4.27,4.27,0,0,1,1.84-.45,3,3,0,0,1,2.88,1.69A7.33,7.33,0,0,1,84.47,414.59Z"/>
        <path class="c" d="M82.53,406.3a1.13,1.13,0,0,1-.39.92.64.64,0,0,1-.75,0,2,2,0,0,1-.68-1,5.22,5.22,0,0,1-.17-2.06,4.31,4.31,0,0,1,1.61-3.18,8.09,8.09,0,0,1,3.68-1.46,26.09,26.09,0,0,1,5.11-.27q2.86.1,5.93.4.84-2.23,1.24-3.67t.15-1.69q-.35-.3.32-.7a3.58,3.58,0,0,1,1.66-.45,4.36,4.36,0,0,1,2.06.45,3,3,0,0,1,1.51,2,3.88,3.88,0,0,1,0,1.89,22.21,22.21,0,0,1-.65,2.68q2.18.1,4.37,0a35.83,35.83,0,0,0,3.92-.37,12.38,12.38,0,0,0,2.81-.72q1.07-.45,1.07-1.09t.45-.77a1.24,1.24,0,0,1,.89.37,2.09,2.09,0,0,1,.62,1,1.15,1.15,0,0,1-.42,1.19,6.23,6.23,0,0,1-2.06,1.22,20.69,20.69,0,0,1-3.38,1q-2,.42-4.35.72a47.43,47.43,0,0,1-5,.35q-1,2.68-2.51,5.81L96.76,415q-1.46,3.1-2.83,6t-2.18,5a16.65,16.65,0,0,0-1,3.45q-.17,1.29.72,1.19a2.48,2.48,0,0,0,1.27-.79,21.6,21.6,0,0,0,1.71-1.91q.94-1.17,1.94-2.61t1.89-2.88q.89-1.44,1.59-2.73a16,16,0,0,0,1-2.14.75.75,0,0,1,.5-.5,1.07,1.07,0,0,1,.65,0,.85.85,0,0,1,.47.4.61.61,0,0,1,0,.65q-.4.85-1.14,2.31t-1.76,3.13q-1,1.66-2.21,3.35A31.76,31.76,0,0,1,94.87,430a15.21,15.21,0,0,1-2.56,2.28,4.39,4.39,0,0,1-2.48.89,2.9,2.9,0,0,1-1.71-.4A3.33,3.33,0,0,1,87,431.5a5.6,5.6,0,0,1-.6-2,10.57,10.57,0,0,1,0-2.51,23.87,23.87,0,0,1,1.17-4.35q1-2.81,2.31-6.16t2.86-6.9q1.51-3.55,2.81-6.63-2.58,0-4.92.07a25.74,25.74,0,0,0-4.1.42,8.41,8.41,0,0,0-2.83,1A2.18,2.18,0,0,0,82.53,406.3Z"/>
        <path class="c" d="M120.57,417.13a.8.8,0,0,1,.3,1.09q-.85,1.79-2,3.75a35.83,35.83,0,0,1-2.63,3.82,32.56,32.56,0,0,1-3.1,3.43,17.1,17.1,0,0,1-3.4,2.56,10.85,10.85,0,0,1-3.6,1.29,6.53,6.53,0,0,1-3.63-.45,5.48,5.48,0,0,1-2.86-2.31,7.94,7.94,0,0,1-1-3.35,12.5,12.5,0,0,1,.3-3.8,26.21,26.21,0,0,1,3.75-8.74,16.74,16.74,0,0,1,3.1-3.45,11.89,11.89,0,0,1,3.38-2,10.07,10.07,0,0,1,3.53-.65,3.63,3.63,0,0,1,2.71.89,3.21,3.21,0,0,1,.87,2.33,7.73,7.73,0,0,1-.79,3.18,14,14,0,0,1-2.26,3.4,17.34,17.34,0,0,1-3.55,3,16.07,16.07,0,0,1-4.67,2.06,17.83,17.83,0,0,0-.5,2.56,10.93,10.93,0,0,0,0,2.31,4.6,4.6,0,0,0,.47,1.74,1.57,1.57,0,0,0,1.12.84,4.18,4.18,0,0,0,2.36-.32A10.86,10.86,0,0,0,111,428.8a22,22,0,0,0,2.58-2.43,34.94,34.94,0,0,0,4.37-6,20.59,20.59,0,0,0,1.37-2.81.9.9,0,0,1,.52-.55A.82.82,0,0,1,120.57,417.13ZM106,420.25a10.24,10.24,0,0,0-.4,1,13.45,13.45,0,0,0,4.89-2.86,14.45,14.45,0,0,0,2.86-3.58,7,7,0,0,0,1-3.05q0-1.29-.87-1.34-1.34,0-3.38,2.58A35.27,35.27,0,0,0,106,420.25Z"/>
        <path class="c" d="M120.72,418.62a.75.75,0,0,1-.47.4.91.91,0,0,1-.6,0,.88.88,0,0,1-.45-.37.72.72,0,0,1,0-.67q.15-.45.55-1.37t.79-1.94q.4-1,.79-2a10.9,10.9,0,0,0,.55-1.61,5,5,0,0,1-2-1.74,4.19,4.19,0,0,1-.82-2.38,4.35,4.35,0,0,1,.79-2.63,2.76,2.76,0,0,1,2.38-1.09A2.21,2.21,0,0,1,124,404a3.09,3.09,0,0,1,.77,2q0,.65-.07,1.79a10.07,10.07,0,0,1-.27,1.89,1.29,1.29,0,0,0,.67.25,7.84,7.84,0,0,0,.92,0,4.75,4.75,0,0,0,1.71-.25,7.17,7.17,0,0,0,1.07-.52l.89-.52a2.46,2.46,0,0,1,1.19-.25,4.41,4.41,0,0,1,2,.5,3,3,0,0,1,1.44,1.94,6.12,6.12,0,0,1-.15,3.5,28.15,28.15,0,0,1-1.66,4.3q-1.07,2.23-2.28,4.42t-2,3.9a9.52,9.52,0,0,0-.94,2.73q-.12,1,1,.92a2.64,2.64,0,0,0,1.24-.79,19.29,19.29,0,0,0,1.74-1.91q.94-1.17,1.94-2.61t1.89-2.88q.89-1.44,1.59-2.73a15.82,15.82,0,0,0,1-2.14.75.75,0,0,1,.5-.5,1.07,1.07,0,0,1,.65,0,.85.85,0,0,1,.47.4.61.61,0,0,1,0,.65q-.4.85-1.14,2.31t-1.76,3.13q-1,1.66-2.21,3.35a31.69,31.69,0,0,1-2.46,3.08,15.21,15.21,0,0,1-2.56,2.28,4.39,4.39,0,0,1-2.48.89,2.9,2.9,0,0,1-1.71-.4,3.33,3.33,0,0,1-1.17-1.27,5.61,5.61,0,0,1-.6-2,10.57,10.57,0,0,1,0-2.51,18.74,18.74,0,0,1,.94-4.12q.75-2.18,1.64-4.3t1.74-3.95a26.29,26.29,0,0,0,1.24-3.13,7.85,7.85,0,0,1-2.36.47,8.18,8.18,0,0,1-2.61-.27l-.52,1.27q-.37.92-.82,2t-.89,2.09Q121,418.07,120.72,418.62Z"/>
        <path class="c" d="M149.42,420.43q-.74,1.47-1.76,3.13t-2.21,3.35A31.69,31.69,0,0,1,143,430a15.21,15.21,0,0,1-2.56,2.28,4.39,4.39,0,0,1-2.48.89,2.9,2.9,0,0,1-1.71-.4,3.34,3.34,0,0,1-1.17-1.27,5.6,5.6,0,0,1-.6-2,10.57,10.57,0,0,1,0-2.51,19.83,19.83,0,0,1,.77-3.48q.57-1.84,1.32-3.68t1.51-3.55q.77-1.71,1.34-3.1a16.32,16.32,0,0,0,.8-2.33q.22-.94-.12-1.29t.32-.7a3.58,3.58,0,0,1,1.66-.45,4.37,4.37,0,0,1,2.06.45,3,3,0,0,1,1.51,2,6.12,6.12,0,0,1-.15,3.5,28.15,28.15,0,0,1-1.66,4.3q-1.07,2.23-2.28,4.42t-2,3.9a9.53,9.53,0,0,0-.94,2.73q-.12,1,1,.92a2.48,2.48,0,0,0,1.27-.79,21.6,21.6,0,0,0,1.71-1.91q.94-1.17,1.94-2.61t1.89-2.88q.89-1.44,1.59-2.73a15.89,15.89,0,0,0,1-2.14.75.75,0,0,1,.5-.5,1.07,1.07,0,0,1,.65,0,.85.85,0,0,1,.47.4.61.61,0,0,1,0,.65Q150.17,419,149.42,420.43ZM147.26,405q.27-.6.6-1.19t.6-1.14a2.12,2.12,0,0,0,.27-.84,2.86,2.86,0,0,0-.75-2,5,5,0,0,0-1.66-1.19,4.25,4.25,0,0,0-1.66-.4c-.5,0-.75.12-.75.35a2,2,0,0,1-.3.84q-.3.55-.67,1.19t-.67,1.22a2.15,2.15,0,0,0-.3.92,2.84,2.84,0,0,0,.79,2.06,5,5,0,0,0,1.71,1.19,4.58,4.58,0,0,0,1.71.37c.53,0,.79-.13.79-.4A2.46,2.46,0,0,1,147.26,405Z"/>
        <path class="c" d="M161.69,412.36a1.35,1.35,0,0,1,.22-.75,2.18,2.18,0,0,1,.57-.6.83.83,0,0,0-.79-.6,2.3,2.3,0,0,0-1.54.62,11,11,0,0,0-1.81,1.94,26.53,26.53,0,0,0-2,3.13q-1,1.86-2.09,4.15a18.3,18.3,0,0,0-1.07,3.18,17.51,17.51,0,0,0-.5,3.28,7.71,7.71,0,0,0,.27,2.66,1.72,1.72,0,0,0,1.29,1.32,4.18,4.18,0,0,0,2.36-.32,10.86,10.86,0,0,0,2.58-1.56,21.94,21.94,0,0,0,2.58-2.43,34.94,34.94,0,0,0,4.37-6,20.59,20.59,0,0,0,1.37-2.81.82.82,0,0,1,.5-.52.93.93,0,0,1,.75.07.73.73,0,0,1,.35,1,39.08,39.08,0,0,1-2,3.7,36,36,0,0,1-2.61,3.8,34.28,34.28,0,0,1-3.1,3.45,17.55,17.55,0,0,1-3.43,2.63,10.55,10.55,0,0,1-3.63,1.32,6.6,6.6,0,0,1-3.65-.45,5.44,5.44,0,0,1-2.86-2.33,8.09,8.09,0,0,1-1-3.35,12.36,12.36,0,0,1,.3-3.77,25,25,0,0,1,1.09-3.6,26.55,26.55,0,0,1,2.66-5.19,16.88,16.88,0,0,1,3.1-3.53,10.74,10.74,0,0,1,3.38-2,10,10,0,0,1,3.53-.55,7.63,7.63,0,0,1,1.27.22,3.88,3.88,0,0,1,1.24.57,3.38,3.38,0,0,1,1,1.07,3.21,3.21,0,0,1,.4,1.66,2,2,0,0,1-.45,1.44,1.32,1.32,0,0,1-1.09.5,1.61,1.61,0,0,1-1.07-.4A1.29,1.29,0,0,1,161.69,412.36Z"/>
        <path class="c" d="M187.16,417.13a.8.8,0,0,1,.3,1.09q-.85,1.79-2,3.75a35.83,35.83,0,0,1-2.63,3.82,32.56,32.56,0,0,1-3.1,3.43,17.1,17.1,0,0,1-3.4,2.56,10.85,10.85,0,0,1-3.6,1.29,6.53,6.53,0,0,1-3.63-.45,5.48,5.48,0,0,1-2.86-2.31,7.94,7.94,0,0,1-1-3.35,12.5,12.5,0,0,1,.3-3.8,26.21,26.21,0,0,1,3.75-8.74,16.74,16.74,0,0,1,3.1-3.45,11.89,11.89,0,0,1,3.38-2,10.07,10.07,0,0,1,3.53-.65,3.63,3.63,0,0,1,2.71.89,3.21,3.21,0,0,1,.87,2.33,7.73,7.73,0,0,1-.79,3.18,14,14,0,0,1-2.26,3.4,17.34,17.34,0,0,1-3.55,3,16.07,16.07,0,0,1-4.67,2.06,17.83,17.83,0,0,0-.5,2.56,10.93,10.93,0,0,0,0,2.31,4.6,4.6,0,0,0,.47,1.74,1.57,1.57,0,0,0,1.12.84,4.18,4.18,0,0,0,2.36-.32,10.86,10.86,0,0,0,2.58-1.56,22,22,0,0,0,2.58-2.43,34.94,34.94,0,0,0,4.37-6,20.59,20.59,0,0,0,1.37-2.81.9.9,0,0,1,.52-.55A.82.82,0,0,1,187.16,417.13Zm-14.55,3.13a10.24,10.24,0,0,0-.4,1,13.45,13.45,0,0,0,4.89-2.86,14.45,14.45,0,0,0,2.86-3.58,7,7,0,0,0,1-3.05q0-1.29-.87-1.34-1.34,0-3.38,2.58A35.27,35.27,0,0,0,172.61,420.25Z"/>
        <path class="c" d="M211.7,412.36a1.36,1.36,0,0,1,.22-.75,2.19,2.19,0,0,1,.57-.6.83.83,0,0,0-.79-.6,2.29,2.29,0,0,0-1.54.62,11,11,0,0,0-1.81,1.94,26.53,26.53,0,0,0-2,3.13q-1,1.86-2.09,4.15a19,19,0,0,0-1.07,3.1,14.88,14.88,0,0,0-.47,3.18,8.2,8.2,0,0,0,.3,2.66,2.13,2.13,0,0,0,1.24,1.49,1.94,1.94,0,0,0,2.19-.67,16.64,16.64,0,0,0,2.33-3,44.17,44.17,0,0,0,2.31-4.17q1.12-2.28,2.06-4.17.94-2.43,2.09-5.14l2.26-5.34q1.12-2.63,2.13-5.07t1.74-4.35q.72-1.91,1-3.13t.07-1.46q-.35-.3.32-.7a3.58,3.58,0,0,1,1.66-.45,4.36,4.36,0,0,1,2.06.45,3,3,0,0,1,1.51,2,6.16,6.16,0,0,1-.2,3.2,40.92,40.92,0,0,1-1.61,4.79q-1.07,2.68-2.51,5.79t-2.91,6.13q-1.47,3-2.78,5.83t-2.14,4.92a13.74,13.74,0,0,0-.94,3.35q-.12,1.24.72,1.14a2.48,2.48,0,0,0,1.27-.79,21.76,21.76,0,0,0,1.71-1.91q.94-1.17,1.94-2.61t1.89-2.88q.89-1.44,1.59-2.73a16,16,0,0,0,1-2.14.74.74,0,0,1,.5-.5,1.07,1.07,0,0,1,.65,0,.86.86,0,0,1,.47.4.61.61,0,0,1,0,.65q-.4.85-1.14,2.31t-1.76,3.13q-1,1.66-2.21,3.35a31.76,31.76,0,0,1-2.46,3.08,15.21,15.21,0,0,1-2.56,2.28,4.39,4.39,0,0,1-2.48.89,2.83,2.83,0,0,1-2.81-1.51,7,7,0,0,1-.72-4.1,21.49,21.49,0,0,1-2,2.76,9.79,9.79,0,0,1-2.23,2,6,6,0,0,1-2.58.89,5.85,5.85,0,0,1-3-.55,5.44,5.44,0,0,1-2.86-2.33,8.08,8.08,0,0,1-1-3.35,12.38,12.38,0,0,1,.3-3.77,25,25,0,0,1,1.09-3.6,26.55,26.55,0,0,1,2.66-5.19,16.87,16.87,0,0,1,3.1-3.53,10.74,10.74,0,0,1,3.38-2,10,10,0,0,1,3.53-.55,7.62,7.62,0,0,1,1.27.22,3.88,3.88,0,0,1,1.24.57,3.38,3.38,0,0,1,1,1.07,3.21,3.21,0,0,1,.4,1.66,2,2,0,0,1-.45,1.44,1.32,1.32,0,0,1-1.09.5,1.61,1.61,0,0,1-1.07-.4A1.29,1.29,0,0,1,211.7,412.36Z"/>
        <path class="c" d="M240.8,411.91a1.75,1.75,0,0,1-.3,1.14,1.32,1.32,0,0,1-1.24.75,1.61,1.61,0,0,1-1.07-.4,1.29,1.29,0,0,1-.47-1,1.35,1.35,0,0,1,.22-.75,2.19,2.19,0,0,1,.57-.6q-.4-.69-.92-.7a2,2,0,0,0-1.12.42,7,7,0,0,0-1.22,1.14q-.62.72-1.22,1.46a23.56,23.56,0,0,0-2,3.1,33,33,0,0,0-1.71,3.63,27.85,27.85,0,0,0-1.19,3.68,14.89,14.89,0,0,0-.47,3.3,5.65,5.65,0,0,0,.42,2.46,2,2,0,0,0,1.49,1.17,2,2,0,0,0,1.66-.67,12.61,12.61,0,0,0,1.84-2.11q.92-1.29,1.79-2.81t1.51-2.81a2.56,2.56,0,0,1-1.44-1.46,4,4,0,0,1-.25-2.06,3.69,3.69,0,0,1,.79-1.84,2,2,0,0,1,1.64-.79q.35,0,.89,0a1.38,1.38,0,0,1,.94.52,2.53,2.53,0,0,1,.45,1.51,9.88,9.88,0,0,1-.55,3,9,9,0,0,0,3.18-.55,6.67,6.67,0,0,0,1.86-1.09,3.2,3.2,0,0,0,.89-1.17,4.73,4.73,0,0,1,.32-.72.67.67,0,0,1,.47-.42.9.9,0,0,1,.62.07,1,1,0,0,1,.45.47.89.89,0,0,1,0,.72,5.1,5.1,0,0,1-1.24,1.74,7.89,7.89,0,0,1-2,1.34,10.93,10.93,0,0,1-2.48.84,11,11,0,0,1-2.76.25q-.7,1.54-1.76,3.43a21.81,21.81,0,0,1-2.46,3.5,13.52,13.52,0,0,1-3.06,2.66,5.69,5.69,0,0,1-3.55.89,5.37,5.37,0,0,1-3.9-2.09,7.6,7.6,0,0,1-1.51-4.47,18.24,18.24,0,0,1,.4-4.15,22.49,22.49,0,0,1,3.53-8.19,17.22,17.22,0,0,1,2.9-3.25,12.12,12.12,0,0,1,3.53-2.13,9.62,9.62,0,0,1,4-.65,3.35,3.35,0,0,1,1.56.42,3.56,3.56,0,0,1,1,.89,3.78,3.78,0,0,1,.6,1.14A9.46,9.46,0,0,1,240.8,411.91Z"/>
        <path class="c" d="M252.37,429.29a1.37,1.37,0,0,1-.84,1.34.92.92,0,0,0,.84.6,2.33,2.33,0,0,0,1.51-.62,10.48,10.48,0,0,0,1.84-1.94,27.37,27.37,0,0,0,2-3.1q1-1.84,2.09-4.17a18.6,18.6,0,0,0,1.07-3.15,17.13,17.13,0,0,0,.5-3.25,7.72,7.72,0,0,0-.27-2.66,1.84,1.84,0,0,0-1.29-1.37,2.82,2.82,0,0,0-2.36.7A13.77,13.77,0,0,0,255,414.2a34,34,0,0,0-2.38,3.6q-1.17,2-2.11,3.85t-1.66,3.65q-.77,1.71-1.24,3.08a19.53,19.53,0,0,0-.67,2.31,2.21,2.21,0,0,0,0,1.34q.2.4-.32.82a2.17,2.17,0,0,1-1.34.45,3,3,0,0,1-1.69-.52,3.46,3.46,0,0,1-1.32-2,5.8,5.8,0,0,1,.17-2.88,42.7,42.7,0,0,1,1.44-4.64q1-2.66,2.26-5.74t2.66-6.21q1.37-3.13,2.63-6.08t2.21-5.29q.94-2.33,1.39-3.87t.15-1.84q-.35-.3.32-.7a3.63,3.63,0,0,1,1.69-.45,4.27,4.27,0,0,1,2.06.45,3,3,0,0,1,1.49,2,5.14,5.14,0,0,1-.07,2.38,26.5,26.5,0,0,1-1.07,3.58q-.74,2-1.76,4.44t-2.21,4.94a9.17,9.17,0,0,1,3.55-2.14,5.92,5.92,0,0,1,4.15.35,5.72,5.72,0,0,1,2.86,2.36,7.9,7.9,0,0,1,1,3.33,12.36,12.36,0,0,1-.3,3.77,25,25,0,0,1-1.09,3.6,26.25,26.25,0,0,1-2.88,5.46,16.68,16.68,0,0,1-3.33,3.58A10.35,10.35,0,0,0,264,429a27.19,27.19,0,0,0,3.65-3.65,40.17,40.17,0,0,0,3-3.95,41.67,41.67,0,0,0,2.16-3.65.84.84,0,0,1,.45-.47.86.86,0,0,1,.74.12.81.81,0,0,1,.42.55,1,1,0,0,1-.07.65,37.65,37.65,0,0,1-2.76,4.72,45.29,45.29,0,0,1-3.45,4.42,24.09,24.09,0,0,1-2.66,2.56,13.38,13.38,0,0,1-3.18,1.94,14.85,14.85,0,0,1-4,1.07,21.93,21.93,0,0,1-5.12,0,7.51,7.51,0,0,1-1.27-.22,3.82,3.82,0,0,1-1.24-.57,3.34,3.34,0,0,1-1-1.07,3.21,3.21,0,0,1-.4-1.66,1.94,1.94,0,0,1,.4-1.39,1.41,1.41,0,0,1,1.14-.55,1.61,1.61,0,0,1,1.07.4A1.3,1.3,0,0,1,252.37,429.29Z"/>
        <path class="c" d="M274.22,418.62a.75.75,0,0,1-.47.4.91.91,0,0,1-.6,0,.88.88,0,0,1-.45-.37.72.72,0,0,1,0-.67q.15-.45.55-1.37t.79-1.94q.4-1,.8-2a10.89,10.89,0,0,0,.55-1.61,5,5,0,0,1-2-1.74,4.19,4.19,0,0,1-.82-2.38,4.35,4.35,0,0,1,.8-2.63,2.75,2.75,0,0,1,2.38-1.09,2.21,2.21,0,0,1,1.71.82,3.09,3.09,0,0,1,.77,2q0,.65-.07,1.79a10.12,10.12,0,0,1-.27,1.89,1.28,1.28,0,0,0,.67.25,7.84,7.84,0,0,0,.92,0,4.74,4.74,0,0,0,1.71-.25,7.13,7.13,0,0,0,1.07-.52l.89-.52a2.46,2.46,0,0,1,1.19-.25,4.41,4.41,0,0,1,2,.5,3,3,0,0,1,1.44,1.94,6.11,6.11,0,0,1-.15,3.5,28.21,28.21,0,0,1-1.66,4.3q-1.07,2.23-2.28,4.42t-2,3.9a9.49,9.49,0,0,0-.94,2.73q-.13,1,1,.92a2.64,2.64,0,0,0,1.24-.79,19.23,19.23,0,0,0,1.74-1.91q.94-1.17,1.94-2.61t1.89-2.88q.89-1.44,1.59-2.73a15.94,15.94,0,0,0,1-2.14.75.75,0,0,1,.5-.5,1.07,1.07,0,0,1,.65,0,.85.85,0,0,1,.47.4.61.61,0,0,1,0,.65q-.4.85-1.14,2.31t-1.76,3.13q-1,1.66-2.21,3.35a31.76,31.76,0,0,1-2.46,3.08,15.21,15.21,0,0,1-2.56,2.28,4.39,4.39,0,0,1-2.48.89,2.9,2.9,0,0,1-1.71-.4,3.32,3.32,0,0,1-1.17-1.27,5.58,5.58,0,0,1-.6-2,10.52,10.52,0,0,1,0-2.51,18.77,18.77,0,0,1,.94-4.12q.74-2.18,1.64-4.3t1.74-3.95a26.21,26.21,0,0,0,1.24-3.13,7.85,7.85,0,0,1-2.36.47,8.18,8.18,0,0,1-2.61-.27q-.15.35-.52,1.27t-.82,2q-.45,1.07-.89,2.09T274.22,418.62Z"/>
        <path class="c" d="M306.84,411.91a1.75,1.75,0,0,1-.3,1.14,1.32,1.32,0,0,1-1.24.75,1.61,1.61,0,0,1-1.07-.4,1.3,1.3,0,0,1-.47-1,1.35,1.35,0,0,1,.22-.75,2.17,2.17,0,0,1,.57-.6q-.4-.69-.92-.7a2,2,0,0,0-1.12.42,7,7,0,0,0-1.22,1.14q-.62.72-1.22,1.46a23.36,23.36,0,0,0-2,3.1,32.86,32.86,0,0,0-1.71,3.63,27.86,27.86,0,0,0-1.19,3.68,14.94,14.94,0,0,0-.47,3.3,5.65,5.65,0,0,0,.42,2.46,2,2,0,0,0,1.49,1.17,2,2,0,0,0,1.66-.67,12.66,12.66,0,0,0,1.84-2.11q.92-1.29,1.79-2.81t1.51-2.81a2.56,2.56,0,0,1-1.44-1.46,4,4,0,0,1-.25-2.06,3.69,3.69,0,0,1,.8-1.84,2,2,0,0,1,1.64-.79c.23,0,.53,0,.89,0a1.37,1.37,0,0,1,.94.52,2.54,2.54,0,0,1,.45,1.51,9.91,9.91,0,0,1-.55,3,9,9,0,0,0,3.18-.55,6.66,6.66,0,0,0,1.86-1.09,3.19,3.19,0,0,0,.89-1.17,4.8,4.8,0,0,1,.32-.72.67.67,0,0,1,.47-.42.89.89,0,0,1,.62.07,1,1,0,0,1,.45.47.9.9,0,0,1,0,.72,5.13,5.13,0,0,1-1.24,1.74,7.9,7.9,0,0,1-2,1.34,11.35,11.35,0,0,1-5.24,1.09q-.7,1.54-1.76,3.43a21.82,21.82,0,0,1-2.46,3.5,13.52,13.52,0,0,1-3.05,2.66,5.69,5.69,0,0,1-3.55.89,5.36,5.36,0,0,1-3.9-2.09,7.6,7.6,0,0,1-1.51-4.47,18.22,18.22,0,0,1,.4-4.15,22.11,22.11,0,0,1,1.34-4.25,22.36,22.36,0,0,1,2.18-3.95,17.19,17.19,0,0,1,2.91-3.25,12.12,12.12,0,0,1,3.53-2.13,9.63,9.63,0,0,1,4-.65,3.35,3.35,0,0,1,1.56.42,3.57,3.57,0,0,1,1,.89,3.8,3.8,0,0,1,.6,1.14A9.64,9.64,0,0,1,306.84,411.91Z"/>
        <path class="c" d="M324.72,412.36a1.35,1.35,0,0,1,.22-.75,2.19,2.19,0,0,1,.57-.6.83.83,0,0,0-.79-.6,2.29,2.29,0,0,0-1.54.62,11,11,0,0,0-1.81,1.94,26.53,26.53,0,0,0-2,3.13q-1,1.86-2.09,4.15a19,19,0,0,0-1.07,3.1,14.87,14.87,0,0,0-.47,3.18,8.2,8.2,0,0,0,.3,2.66,2.13,2.13,0,0,0,1.24,1.49q1.09.45,2.33-.82a17.83,17.83,0,0,0,2.48-3.35q1.24-2.09,2.41-4.49t2.16-4.25a.29.29,0,0,1,0-.2q1.34-3.18,2.06-5.41t.32-2.78q-.25-.3.45-.7a3.85,3.85,0,0,1,1.74-.45,3.92,3.92,0,0,1,2.06.5,3.24,3.24,0,0,1,1.46,2.09,5.56,5.56,0,0,1-.25,2.71,42.41,42.41,0,0,1-1.39,4.2q-.89,2.34-2,4.89t-2.19,4.82q-1,2.26-1.84,3.95a21.64,21.64,0,0,0-1,2.33,20.19,20.19,0,0,0,3.72-3.35,52.71,52.71,0,0,0,3.63-4.52q1.69-2.36,3-4.59a25.31,25.31,0,0,0,1.79-3.58.83.83,0,0,1,.5-.57,1,1,0,0,1,.64,0,.85.85,0,0,1,.47.4.68.68,0,0,1,0,.65,49.05,49.05,0,0,1-2.86,5.34,54.89,54.89,0,0,1-3.75,5.39,39.85,39.85,0,0,1-4.27,4.64,20,20,0,0,1-4.37,3.15q-.3.74-.79,1.91l-1,2.36q-.52,1.19-.94,2.23l-.62,1.54a5.74,5.74,0,0,1-1.56,2.36,7.72,7.72,0,0,1-2.41,1.49,8.9,8.9,0,0,1-2.78.6,7.87,7.87,0,0,1-2.68-.3,5.34,5.34,0,0,1-2.16-1.24,4,4,0,0,1-1.17-2.21,2.85,2.85,0,0,1,.12-1.07,3.16,3.16,0,0,1,.87-1.32,9.18,9.18,0,0,1,1.91-1.44q1.12-.65,2.33-1.24t2.38-1.22a10.47,10.47,0,0,0,2-1.37q.5-1.39,1.17-3.08t1.46-3.53a7.32,7.32,0,0,1-3.15,1.86,6,6,0,0,1-3.85-.37,5.44,5.44,0,0,1-2.86-2.33,8.08,8.08,0,0,1-1-3.35,12.36,12.36,0,0,1,.3-3.77,25.1,25.1,0,0,1,1.09-3.6,26.61,26.61,0,0,1,2.66-5.19,16.88,16.88,0,0,1,3.1-3.53,10.73,10.73,0,0,1,3.38-2,10,10,0,0,1,3.53-.55,7.62,7.62,0,0,1,1.27.22,3.88,3.88,0,0,1,1.24.57,3.39,3.39,0,0,1,1,1.07,3.22,3.22,0,0,1,.4,1.66,2,2,0,0,1-.45,1.44,1.32,1.32,0,0,1-1.09.5,1.61,1.61,0,0,1-1.07-.4A1.29,1.29,0,0,1,324.72,412.36ZM317.42,440a8.55,8.55,0,0,1-1.69,1l-1.89.89a17.24,17.24,0,0,0-1.81,1,5.1,5.1,0,0,0-1.42,1.29,1.52,1.52,0,0,0-.27,1.09,2.13,2.13,0,0,0,.45,1.07,2.42,2.42,0,0,0,.94.72,1.84,1.84,0,0,0,1.27,0,3.4,3.4,0,0,0,1.44-1,7.45,7.45,0,0,0,1.39-2.36q.3-.7.72-1.64T317.42,440Z"/>
        <path class="c" d="M357.4,432.12l0,0a13.1,13.1,0,0,1-2.09.84,6.06,6.06,0,0,1-1.69.3,4.25,4.25,0,0,1-3.05-1,4.92,4.92,0,0,1-1.42-2.41,6.59,6.59,0,0,1-.1-2.78,4.13,4.13,0,0,1,.94-2.13,6,6,0,0,1,1.79-1.39,2.38,2.38,0,0,1,1.34-.25,1.82,1.82,0,0,1,1,.45,1.25,1.25,0,0,1,.47,1,1.45,1.45,0,0,1-.47,1.09,1.51,1.51,0,0,1-1.07.45,1.46,1.46,0,0,1-.84-.27,1.38,1.38,0,0,1-.55-.72,4.15,4.15,0,0,0-.89,1.79,5.1,5.1,0,0,0-.1,2,3,3,0,0,0,.77,1.61,2.37,2.37,0,0,0,1.71.72,2.85,2.85,0,0,0,1.14-.37,5.22,5.22,0,0,0,1.52-1.24,8.44,8.44,0,0,0,1.37-2.23,9.85,9.85,0,0,0,.72-3.3,17,17,0,0,0-.42-4.52,26.56,26.56,0,0,0-2.09-5.81q-.5.94-1.12,2.06t-1.12,2.11a.88.88,0,0,1-.6.4,1.2,1.2,0,0,1-.65-.07.76.76,0,0,1-.42-.4.67.67,0,0,1,.07-.62q.4-.84.75-1.51t.7-1.27q.35-.6.64-1.22l.65-1.32a6.46,6.46,0,0,1-.84-1.74,6.55,6.55,0,0,1-.3-2,4.56,4.56,0,0,1,.17-1.12,4.74,4.74,0,0,1,.6-1.34,3.68,3.68,0,0,1,1.17-1.14,3.57,3.57,0,0,1,1.94-.47,2.56,2.56,0,0,1,1.81.55,2,2,0,0,1,.62,1.39,4.45,4.45,0,0,1-.35,1.86,11.14,11.14,0,0,1-1,2l-.15.3a27.56,27.56,0,0,1,3.1,4.27,20.81,20.81,0,0,1,1.76,3.87,13.15,13.15,0,0,1,.67,3.43,10.25,10.25,0,0,1-.27,3,46.49,46.49,0,0,0,2.93-3.72,30.08,30.08,0,0,0,2.13-3.48.84.84,0,0,1,.45-.47.86.86,0,0,1,.74.12.81.81,0,0,1,.42.55,1,1,0,0,1-.07.65,30.15,30.15,0,0,1-2.76,4.57q-1.56,2.14-3.45,4.27a25.15,25.15,0,0,1-2.8,2.68,14,14,0,0,1-3.3,2Z"/>
        <path class="c" d="M369.66,418.62a.75.75,0,0,1-.47.4.91.91,0,0,1-.6,0,.88.88,0,0,1-.45-.37.72.72,0,0,1,0-.67q.15-.45.55-1.37t.79-1.94q.4-1,.8-2a10.89,10.89,0,0,0,.55-1.61,5,5,0,0,1-2-1.74,4.19,4.19,0,0,1-.82-2.38,4.35,4.35,0,0,1,.8-2.63,2.75,2.75,0,0,1,2.38-1.09,2.21,2.21,0,0,1,1.71.82,3.09,3.09,0,0,1,.77,2q0,.65-.07,1.79a10.12,10.12,0,0,1-.27,1.89,1.28,1.28,0,0,0,.67.25,7.84,7.84,0,0,0,.92,0,4.74,4.74,0,0,0,1.71-.25,7.13,7.13,0,0,0,1.07-.52l.89-.52a2.46,2.46,0,0,1,1.19-.25,4.41,4.41,0,0,1,2,.5,3,3,0,0,1,1.44,1.94,6.11,6.11,0,0,1-.15,3.5,28.21,28.21,0,0,1-1.66,4.3q-1.07,2.23-2.28,4.42t-2,3.9a9.49,9.49,0,0,0-.94,2.73q-.13,1,1,.92a2.64,2.64,0,0,0,1.24-.79,19.23,19.23,0,0,0,1.74-1.91q.94-1.17,1.94-2.61t1.89-2.88q.89-1.44,1.59-2.73a15.94,15.94,0,0,0,1-2.14.75.75,0,0,1,.5-.5,1.07,1.07,0,0,1,.65,0,.85.85,0,0,1,.47.4.61.61,0,0,1,0,.65q-.4.85-1.14,2.31t-1.76,3.13q-1,1.66-2.21,3.35a31.76,31.76,0,0,1-2.46,3.08,15.21,15.21,0,0,1-2.56,2.28,4.39,4.39,0,0,1-2.48.89,2.9,2.9,0,0,1-1.71-.4,3.32,3.32,0,0,1-1.17-1.27,5.58,5.58,0,0,1-.6-2,10.52,10.52,0,0,1,0-2.51,18.77,18.77,0,0,1,.94-4.12q.74-2.18,1.64-4.3t1.74-3.95a26.21,26.21,0,0,0,1.24-3.13,7.85,7.85,0,0,1-2.36.47,8.18,8.18,0,0,1-2.61-.27q-.15.35-.52,1.27t-.82,2q-.45,1.07-.89,2.09T369.66,418.62Z"/>
        <path class="c" d="M399.21,412.36a1.35,1.35,0,0,1,.22-.75,2.17,2.17,0,0,1,.57-.6.83.83,0,0,0-.8-.6,2.3,2.3,0,0,0-1.54.62,11.05,11.05,0,0,0-1.81,1.94,26.53,26.53,0,0,0-2,3.13q-1,1.86-2.09,4.15a18.26,18.26,0,0,0-1.07,3.18,17.51,17.51,0,0,0-.5,3.28,7.72,7.72,0,0,0,.27,2.66,1.72,1.72,0,0,0,1.29,1.32,4.18,4.18,0,0,0,2.36-.32,10.86,10.86,0,0,0,2.58-1.56,22,22,0,0,0,2.58-2.43,34.83,34.83,0,0,0,4.37-6,20.48,20.48,0,0,0,1.37-2.81.82.82,0,0,1,.5-.52.93.93,0,0,1,.75.07.73.73,0,0,1,.35,1,39.2,39.2,0,0,1-2,3.7,35.94,35.94,0,0,1-2.61,3.8,34.21,34.21,0,0,1-3.1,3.45,17.55,17.55,0,0,1-3.43,2.63,10.55,10.55,0,0,1-3.63,1.32,6.6,6.6,0,0,1-3.65-.45,5.44,5.44,0,0,1-2.86-2.33,8.08,8.08,0,0,1-1-3.35,12.36,12.36,0,0,1,.3-3.77,25,25,0,0,1,1.09-3.6,26.55,26.55,0,0,1,2.66-5.19,16.85,16.85,0,0,1,3.1-3.53,10.74,10.74,0,0,1,3.38-2,10,10,0,0,1,3.53-.55,7.62,7.62,0,0,1,1.27.22,3.87,3.87,0,0,1,1.24.57,3.38,3.38,0,0,1,1,1.07,3.22,3.22,0,0,1,.4,1.66,2,2,0,0,1-.45,1.44,1.32,1.32,0,0,1-1.09.5,1.61,1.61,0,0,1-1.07-.4A1.3,1.3,0,0,1,399.21,412.36Z"/>
        <path class="c" d="M417.58,412.36a1.35,1.35,0,0,1,.22-.75,2.19,2.19,0,0,1,.57-.6.83.83,0,0,0-.79-.6A2.29,2.29,0,0,0,416,411a11,11,0,0,0-1.81,1.94,26.53,26.53,0,0,0-2,3.13q-1,1.86-2.09,4.15a19,19,0,0,0-1.07,3.1,14.87,14.87,0,0,0-.47,3.18,8.2,8.2,0,0,0,.3,2.66,2.13,2.13,0,0,0,1.24,1.49,1.57,1.57,0,0,0,1.46-.15,5.86,5.86,0,0,0,1.54-1.39,20.54,20.54,0,0,0,1.59-2.28q.82-1.34,1.59-2.81t1.49-2.93q.72-1.46,1.37-2.71.69-1.64,1.37-3.1t1.12-2.63a11.46,11.46,0,0,0,.6-2q.15-.82-.15-1.12t.32-.7a3.58,3.58,0,0,1,1.66-.45,4.37,4.37,0,0,1,2.06.45,3,3,0,0,1,1.51,2,6.12,6.12,0,0,1-.15,3.5,28.21,28.21,0,0,1-1.66,4.3q-1.07,2.23-2.28,4.42t-2,3.9a9.53,9.53,0,0,0-.94,2.73q-.12,1,1,.92a2.64,2.64,0,0,0,1.24-.79,19.36,19.36,0,0,0,1.74-1.91q.94-1.17,2-2.61t1.89-2.88q.87-1.44,1.56-2.73a15.94,15.94,0,0,0,1-2.14.74.74,0,0,1,.5-.5,1.07,1.07,0,0,1,.65,0,.85.85,0,0,1,.47.4.61.61,0,0,1,0,.65q-.4.85-1.14,2.31t-1.76,3.13q-1,1.66-2.21,3.35A31.61,31.61,0,0,1,425,430a15.21,15.21,0,0,1-2.56,2.28,4.39,4.39,0,0,1-2.48.89,2.87,2.87,0,0,1-2.83-1.54,6.87,6.87,0,0,1-.7-4.17,24.82,24.82,0,0,1-2,2.81,9.1,9.1,0,0,1-2.26,2,6.18,6.18,0,0,1-2.58.89,6,6,0,0,1-3-.55,5.44,5.44,0,0,1-2.86-2.33,8.08,8.08,0,0,1-1-3.35,12.36,12.36,0,0,1,.3-3.77,25.1,25.1,0,0,1,1.09-3.6,26.61,26.61,0,0,1,2.66-5.19,16.88,16.88,0,0,1,3.1-3.53,10.73,10.73,0,0,1,3.38-2,10,10,0,0,1,3.53-.55,7.62,7.62,0,0,1,1.27.22,3.88,3.88,0,0,1,1.24.57,3.39,3.39,0,0,1,1,1.07,3.22,3.22,0,0,1,.4,1.66,1.83,1.83,0,0,1-.5,1.49,1.33,1.33,0,0,1-1,.45,1.61,1.61,0,0,1-1.07-.4A1.29,1.29,0,0,1,417.58,412.36Z"/>
      </g>
    </g>
  </g>
</svg>
